<svg width="64" height="32" viewBox="0 0 64 32" fill="none" xmlns="http://www.w3.org/2000/svg">
<g clip-path="url(#clip0_0_692)">
<path d="M20.1596 9.49582L20.0285 10.4166H17.9507C17.4506 16.2812 17.0787 21.0574 16.6579 23.2664C15.8957 27.2635 12.1882 29.4984 9.76882 29.4984C8.95323 29.4984 7.87543 29.0517 7.87543 28.0776C7.87543 27.5257 8.34954 27.105 8.9014 27.105C9.76882 27.105 10.4259 27.7087 10.8741 28.4191C12.1882 27.6828 12.3726 27.0775 12.8986 24.4494C13.1349 23.2664 13.9017 14.676 14.2965 10.4166H12.6653L12.7964 9.49582H14.4261L14.6624 8.05063C15.5557 2.60827 19.5788 2.00305 20.9981 2.00305C21.7603 2.00305 23.2589 2.37197 23.2589 3.34306C23.2589 4.02602 22.707 4.3172 22.0759 4.3172C21.1033 4.3172 20.6566 3.71198 20.184 2.92231C18.501 3.65863 18.2113 7.6817 18.0543 9.49582H20.1596Z" fill="url(#paint0_linear_0_692)"/>
<path d="M25.6416 27.7864C22.9227 30.0198 19.5118 31.2384 15.9932 31.2332C7.58119 31.2332 0.762235 24.4128 0.762235 16.0023C0.762235 7.5887 7.58272 0.768217 15.9947 0.768217C18.6764 0.767626 21.3106 1.47548 23.6308 2.82014C25.9509 4.16481 27.8747 6.09854 29.2073 8.42563C29.5564 8.50338 29.8979 8.5979 30.2303 8.71223C28.889 6.09108 26.8501 3.89114 24.3382 2.35492C21.8264 0.818701 18.9391 0.0058551 15.9947 0.00598146C7.16044 0.00598146 0 7.16642 0 16.0007C0 24.8335 7.16044 31.9939 15.9947 31.9939C20.1626 31.9939 23.9586 30.3978 26.8048 27.7849L25.6416 27.7864Z" fill="#634313"/>
<path d="M32.1115 13.0966C32.1115 10.2839 30.4025 8.99424 27.5091 8.99424C22.803 8.99424 19.963 12.7551 19.963 17.0922C19.963 18.9948 20.7465 20.1976 22.149 20.7784H27.1188C30.2775 19.6899 32.1115 16.5815 32.1115 13.0966ZM23.7772 16.4108C23.7772 14.7019 24.1187 9.99581 26.5639 9.99581C28.2195 9.99581 28.2988 12.6774 28.2988 13.807C28.2988 15.49 27.9573 20.196 25.512 20.196C23.8549 20.196 23.7772 17.5145 23.7772 16.4108ZM45.257 13.0966C45.257 10.2839 43.548 8.99424 40.6546 8.99424C35.9485 8.99424 33.1085 12.7551 33.1085 17.0922C33.1085 18.9948 33.8936 20.1976 35.2946 20.7784H40.2643C43.4246 19.6899 45.257 16.5815 45.257 13.0966ZM36.9227 16.4108C36.9227 14.7019 37.2642 9.99581 39.7094 9.99581C41.365 9.99581 41.4443 12.6774 41.4443 13.807C41.4443 15.49 41.1028 20.196 38.6575 20.196C37.0004 20.196 36.9227 17.5145 36.9227 16.4108ZM53.9327 16.7523L53.9861 16.8056C53.855 18.2783 53.8016 19.0405 53.8016 19.5924C53.8016 19.879 53.794 20.4095 53.9449 20.7814H56.878C57.797 20.5072 58.6935 20.1627 59.5595 19.7509L59.3233 19.0146C58.5077 19.3042 57.904 19.5146 57.7195 19.5146C57.378 19.5146 57.378 19.0679 57.378 18.7249C57.378 17.4627 59.1922 4.97268 59.1922 2.55487C59.1922 2.16003 59.1129 2.16003 58.8766 2.16003C57.0625 2.21339 55.0364 2.63414 53.1705 3.29119L53.4068 4.05343C54.3276 3.7653 54.695 3.68603 54.9313 3.68603C55.2468 3.68603 55.2468 3.94824 55.2468 4.23789C55.2468 5.10531 55.2209 6.31422 54.852 9.18022H53.9053C49.3563 9.18022 46.0954 13.467 46.0954 17.5953C46.0954 18.7707 46.5086 20.1183 47.4461 20.7814H50.4188C51.9936 19.9826 53.2177 18.1807 53.9327 16.7523ZM54.3001 10.1787C54.4312 10.1787 54.5898 10.2062 54.7209 10.258C54.3779 12.7033 54.169 14.2018 53.5379 15.8315C53.1964 16.7263 52.1704 18.6975 51.0134 18.6975C50.1719 18.6975 50.0408 17.3041 50.0408 16.7263C50.0408 14.3863 51.4082 10.1787 54.3001 10.1787Z" fill="url(#paint1_linear_0_692)"/>
<path d="M56.878 20.78H18.0345V27.0441H59.8919V20.78H56.878Z" fill="#634313"/>
<path d="M20.556 22.2206H21.5484L22.8762 24.2009H22.8854V22.2206H23.7055V25.9525H22.9052L21.3838 23.8396H21.3746V25.9525H20.5544V22.2206H20.556ZM26.1233 22.2206H28.9314V22.9904H27.1889V23.6673H28.3049V24.4372H27.1889V25.1537H28.9863V25.9525H26.1233V22.2206ZM32.0124 22.9615H30.9864V22.2206H34.1055V22.9615H33.0795V25.9525H32.0124V22.9615ZM35.9928 22.2206H37.0492L37.563 24.2161H37.5721L38.1011 22.2206H38.9899L39.499 24.2161H39.5082L40.0311 22.2206H40.8695L39.8771 25.9525H38.9655L38.438 23.963H38.4273L37.8999 25.9525H36.9867L35.9928 22.2206ZM44.5969 26.0211C43.4855 26.0211 42.8148 25.2771 42.8148 24.0865C42.8148 22.8959 43.4855 22.152 44.5969 22.152C45.7082 22.152 46.379 22.8959 46.379 24.0865C46.379 25.2771 45.7067 26.0211 44.5969 26.0211ZM43.9398 24.0865C43.9398 25.0896 44.231 25.2817 44.5969 25.2817C44.9566 25.2817 45.2539 25.0896 45.2539 24.0865C45.2539 23.1383 45.0115 22.8913 44.5969 22.8913C44.167 22.8929 43.9398 23.184 43.9398 24.0865ZM48.6184 22.2206H50.4051C51.6491 22.2206 51.8915 22.8136 51.8915 23.2969C51.8915 23.7618 51.6003 24.0713 51.1856 24.2344L51.8823 25.9525H50.6978L50.1688 24.4219H49.6856V25.9525H48.6199L48.6184 22.2206ZM49.684 23.7115H50.2374C50.5438 23.7115 50.7664 23.5789 50.7664 23.3365C50.7664 23.0987 50.6124 22.9325 50.2831 22.9325H49.6856L49.684 23.7115ZM54.2346 22.2206H55.3002V23.7161H55.3093L56.4008 22.2206H57.4177L56.4999 23.4554L57.6601 25.954H56.5198L55.785 24.3594L55.3017 25.0058V25.954H54.2361L54.2346 22.2206Z" fill="white"/>
<path d="M61.8707 25.3945V25.5912H61.3158V27.0349H61.0932V25.5912H60.5383V25.3945H61.8707ZM62.3875 25.3945L62.857 26.7818H62.8616L63.3281 25.3945H63.6436V27.0349H63.4287V25.986L63.4332 25.6598L63.4287 25.6567L62.9668 27.0349H62.7472L62.2853 25.6598L62.2807 25.6567L62.2853 26.0592V27.0364H62.0704V25.3961H62.3875V25.3945Z" fill="#634313"/>
</g>
<defs>
<linearGradient id="paint0_linear_0_692" x1="15.5671" y1="2.00305" x2="15.5671" y2="29.4984" gradientUnits="userSpaceOnUse">
<stop stop-color="#FFA800"/>
<stop offset="1" stop-color="#EE5601"/>
</linearGradient>
<linearGradient id="paint1_linear_0_692" x1="39.7612" y1="2.16003" x2="39.7612" y2="20.7814" gradientUnits="userSpaceOnUse">
<stop stop-color="#FFA800"/>
<stop offset="1" stop-color="#FE7008"/>
</linearGradient>
<clipPath id="clip0_0_692">
<rect width="63.6436" height="32" fill="white"/>
</clipPath>
</defs>
</svg>
