<svg width="34" height="34" viewBox="0 0 34 34" fill="none" xmlns="http://www.w3.org/2000/svg">
<rect x="1" y="1" width="32" height="32" rx="6" fill="#E65527" fill-opacity="0.1"/>
<path d="M15.625 9.95837V20.375C15.625 21.0744 15.625 21.4241 15.5007 21.6962C15.3634 21.9972 15.1221 22.2384 14.8212 22.3757C14.5491 22.5 14.1994 22.5 13.5 22.5C11.6349 22.5 10.7024 22.5 9.97681 22.1687C9.17447 21.8023 8.53109 21.1589 8.16468 20.3566C7.83333 19.631 7.83333 18.6984 7.83333 16.8334V13.5C7.83333 11.6349 7.83333 10.7024 8.16468 9.97685C8.53109 9.17451 9.17447 8.53114 9.97681 8.16472C10.7024 7.83337 11.6349 7.83337 13.5 7.83337C14.1994 7.83337 14.5491 7.83337 14.8212 7.95763C15.1221 8.09504 15.3634 8.3363 15.5007 8.63718C15.625 8.90926 15.625 9.25896 15.625 9.95837Z" stroke="#101010" stroke-width="1.5" stroke-linecap="round" stroke-linejoin="round"/>
<path d="M11.7293 18.8334H11.7211" stroke="#101010" stroke-width="2" stroke-linecap="round" stroke-linejoin="round"/>
<path d="M22.271 15.1666H22.2628" stroke="#101010" stroke-width="2" stroke-linecap="round" stroke-linejoin="round"/>
<path d="M11.7292 11.0416V13.7916M10.3542 12.4166H13.1042" stroke="#101010" stroke-width="1.5" stroke-linecap="round" stroke-linejoin="round"/>
<path d="M18.375 24.0417V13.625C18.375 12.9256 18.375 12.5759 18.4993 12.3038C18.6366 12.0029 18.8779 11.7617 19.1788 11.6243C19.4509 11.5 19.8006 11.5 20.5 11.5C22.3651 11.5 23.2976 11.5 24.0232 11.8313C24.8255 12.1978 25.4689 12.8411 25.8353 13.6435C26.1667 14.369 26.1667 15.3016 26.1667 17.1667V20.5C26.1667 22.3651 26.1667 23.2976 25.8353 24.0232C25.4689 24.8255 24.8255 25.4689 24.0232 25.8353C23.2976 26.1667 22.3651 26.1667 20.5 26.1667C19.8006 26.1667 19.4509 26.1667 19.1788 26.0424C18.8779 25.905 18.6366 25.6638 18.4993 25.3628C18.375 25.0908 18.375 24.7411 18.375 24.0417Z" stroke="#101010" stroke-width="1.5" stroke-linecap="round" stroke-linejoin="round"/>
<path d="M22.2708 22.9584V20.2084M23.6458 21.5834H20.8958" stroke="#101010" stroke-width="1.5" stroke-linecap="round" stroke-linejoin="round"/>
<rect x="1" y="1" width="32" height="32" rx="6" stroke="#E65527" stroke-opacity="0.1" stroke-width="2"/>
</svg>
