<svg width="36" height="36" viewBox="0 0 36 36" fill="none" xmlns="http://www.w3.org/2000/svg">
<rect width="36" height="36" rx="6" fill="#101010" fill-opacity="0.05"/>
<path d="M23.2244 26.0568C22.15 26.2077 20.749 26.2077 18.8702 26.2077H17.1285C13.4339 26.2077 11.5866 26.2077 10.4388 25.0599C9.29102 23.9122 9.29102 22.0648 9.29102 18.3702V16.6285C9.29102 12.9339 9.29102 11.0866 10.4388 9.93879C11.5866 8.79102 13.4339 8.79102 17.1285 8.79102H18.8702C22.5648 8.79102 24.4122 8.79102 25.5599 9.93879C26.7077 11.0866 26.7077 12.9339 26.7077 16.6285V18.3702C26.7077 19.4777 26.7077 20.4192 26.6768 21.2257C26.6519 21.8719 26.6396 22.1952 26.3948 22.3159C26.1501 22.4366 25.8764 22.2429 25.3288 21.8555L24.0952 20.9827" stroke="#101010" stroke-width="1.5" stroke-linecap="round" stroke-linejoin="round"/>
<path d="M20.7005 17.8612C20.5385 18.4357 19.7728 18.8417 18.2416 19.6537C16.7613 20.4385 16.0212 20.8311 15.4247 20.6733C15.1781 20.608 14.9535 20.4842 14.7723 20.3135C14.334 19.9008 14.334 19.1003 14.334 17.4993C14.334 15.8984 14.334 15.0978 14.7723 14.6851C14.9535 14.5145 15.1781 14.3906 15.4247 14.3254C16.0212 14.1677 16.7613 14.5601 18.2416 15.345C19.7728 16.157 20.5385 16.563 20.7005 17.1374C20.7673 17.3746 20.7673 17.6241 20.7005 17.8612Z" stroke="#101010" stroke-width="1.5" stroke-linejoin="round"/>
</svg>
