<svg width="38" height="38" viewBox="0 0 38 38" fill="none" xmlns="http://www.w3.org/2000/svg">
<rect x="1" y="1" width="36" height="36" rx="6" fill="#E65527" fill-opacity="0.1"/>
<path d="M21.25 23.084C20.5171 23.6545 19.5544 24.0007 18.5 24.0007C17.4457 24.0007 16.4829 23.6545 15.75 23.084" stroke="#E65527" stroke-width="1.5"/>
<path d="M9.65609 19.613C9.33249 17.5072 9.17069 16.4543 9.56881 15.5209C9.96692 14.5875 10.8502 13.9489 12.6167 12.6716L13.9366 11.7173C16.1341 10.1284 17.2328 9.33398 18.5007 9.33398C19.7685 9.33398 20.8672 10.1284 23.0647 11.7173L24.3846 12.6716C26.1512 13.9489 27.0344 14.5875 27.4325 15.5209C27.8306 16.4543 27.6688 17.5072 27.3452 19.613L27.0693 21.4087C26.6105 24.3938 26.3811 25.8864 25.3106 26.7769C24.24 27.6673 22.6749 27.6673 19.5446 27.6673H17.4568C14.3265 27.6673 12.7613 27.6673 11.6907 26.7769C10.6202 25.8864 10.3908 24.3938 9.93205 21.4087L9.65609 19.613Z" stroke="#E65527" stroke-width="1.5"/>
<rect x="1" y="1" width="36" height="36" rx="6" stroke="#E65527" stroke-opacity="0.1" stroke-width="2"/>
</svg>
