<svg width="34" height="34" viewBox="0 0 34 34" fill="none" xmlns="http://www.w3.org/2000/svg">
<rect width="34" height="34" rx="6" fill="#101010" fill-opacity="0.05"/>
<path d="M24.6405 9.3584C24.394 9.109 24.0875 8.92737 23.7504 8.83106C23.4133 8.73474 23.057 8.727 22.7161 8.80857L11.7195 11.1247C11.0862 11.2116 10.4898 11.4735 9.99734 11.881C9.50488 12.2885 9.13597 12.8254 8.93217 13.4313C8.72836 14.0371 8.69775 14.6878 8.84378 15.3101C8.98981 15.9324 9.30668 16.5016 9.75871 16.9536L10.9395 18.1336C11.0034 18.1975 11.054 18.2734 11.0886 18.3569C11.1232 18.4404 11.1409 18.5299 11.1408 18.6202V20.7975C11.1424 21.1037 11.2128 21.4055 11.347 21.6807L11.3415 21.6855L11.3594 21.7034C11.5608 22.1083 11.8897 22.4357 12.2955 22.6353L12.3133 22.6532L12.3182 22.6477C12.5933 22.7819 12.8952 22.8524 13.2013 22.8539H15.3786C15.5608 22.8538 15.7356 22.9259 15.8645 23.0546L17.0446 24.2346C17.3611 24.5547 17.7378 24.8089 18.153 24.9826C18.5682 25.1564 19.0137 25.2462 19.4638 25.247C19.8389 25.2465 20.2115 25.1853 20.5669 25.0656C21.1672 24.8685 21.7005 24.5075 22.1066 24.0235C22.5127 23.5394 22.7754 22.9515 22.8652 22.3261L25.1848 11.3055C25.2706 10.9616 25.2655 10.6013 25.1701 10.26C25.0747 9.91861 24.8922 9.60793 24.6405 9.3584ZM11.9127 17.1632L10.7312 15.9831C10.4561 15.7146 10.2633 15.3733 10.1754 14.999C10.0875 14.6248 10.1082 14.2333 10.235 13.8704C10.3579 13.4981 10.5852 13.169 10.8898 12.9221C11.1944 12.6753 11.5635 12.5211 11.9532 12.478L22.8405 10.1859L12.514 20.5137V18.6202C12.5151 18.3497 12.4625 18.0816 12.3592 17.8315C12.256 17.5814 12.1042 17.3542 11.9127 17.1632ZM21.5147 22.091C21.4619 22.4706 21.3044 22.828 21.0598 23.1231C20.8152 23.4181 20.4932 23.6391 20.1299 23.7613C19.7666 23.8836 19.3765 23.9021 19.0033 23.8149C18.6301 23.7277 18.2886 23.5382 18.0171 23.2676L16.835 22.0855C16.6442 21.8937 16.4172 21.7415 16.1672 21.638C15.9172 21.5344 15.6492 21.4814 15.3786 21.4821H13.4852L23.813 11.1577L21.5147 22.091Z" fill="#101010"/>
</svg>
