<svg width="24" height="24" viewBox="0 0 24 24" fill="none" xmlns="http://www.w3.org/2000/svg">
<path d="M13.7281 3.44421L15.4879 6.99291C15.7279 7.4869 16.3678 7.96073 16.9078 8.05146L20.0975 8.58578C22.1373 8.92856 22.6172 10.4206 21.1473 11.8925L18.6677 14.3927C18.2477 14.8161 18.0177 15.6327 18.1476 16.2175L18.8576 19.3125C19.4175 21.7623 18.1276 22.71 15.9779 21.4296L12.9882 19.6452C12.4483 19.3226 11.5584 19.3226 11.0084 19.6452L8.01882 21.4296C5.87905 22.71 4.5792 21.7522 5.13914 19.3125L5.84906 16.2175C5.97904 15.6327 5.74907 14.8161 5.32911 14.3927L2.84939 11.8925C1.38955 10.4206 1.8595 8.92856 3.89927 8.58578L7.08892 8.05146C7.61886 7.96073 8.25879 7.4869 8.49876 6.99291L10.2585 3.44421C11.2184 1.51864 12.7782 1.51864 13.7281 3.44421Z" fill="#E55527" stroke="#E55527" stroke-width="1.5" stroke-linecap="round" stroke-linejoin="round"/>
</svg>
